<svg xmlns="http://www.w3.org/2000/svg" xmlns:xlink="http://www.w3.org/1999/xlink" width="3052" zoomAndPan="magnify" viewBox="394 316 1501 1250" height="2511" preserveAspectRatio="xMidYMid meet" version="1.0"><defs><g/><clipPath id="9e35c79174"><path d="M 1091 109 L 1500.019531 109 L 1500.019531 1249.617188 L 1091 1249.617188 Z M 1091 109 " clip-rule="nonzero"/></clipPath><clipPath id="89a072f167"><rect x="0" width="410" y="0" height="1141"/></clipPath><clipPath id="b391e9c1a1"><rect x="0" width="1501" y="0" height="1250"/></clipPath></defs><g transform="matrix(1, 0, 0, 1, 394, 316)"><g clip-path="url(#b391e9c1a1)"><g fill="#000000" fill-opacity="1"><g transform="translate(0.593707, 768.024618)"><g><path d="M 86.640625 69.015625 C 70.796875 67.484375 58.269531 62.753906 49.0625 54.828125 C 39.863281 46.898438 35.265625 37.054688 35.265625 25.296875 C 35.265625 19.679688 36.925781 13.296875 40.25 6.140625 C 43.570312 -1.015625 46.765625 -8.039062 49.828125 -14.9375 C 52.898438 -21.84375 54.4375 -27.851562 54.4375 -32.96875 C 54.4375 -40.125 51.882812 -48.5625 46.78125 -58.28125 C 36.039062 -79.238281 30.671875 -102.238281 30.671875 -127.28125 C 30.671875 -158.976562 39.101562 -188.628906 55.96875 -216.234375 C 72.84375 -243.835938 95.59375 -264.285156 124.21875 -277.578125 C 129.332031 -280.140625 134.441406 -282.054688 139.546875 -283.328125 C 144.660156 -284.609375 149.773438 -285.25 154.890625 -285.25 C 169.203125 -285.25 180.832031 -280.644531 189.78125 -271.4375 C 198.726562 -262.238281 203.203125 -251.757812 203.203125 -240 C 203.203125 -232.332031 201.03125 -225.5625 196.6875 -219.6875 C 192.34375 -213.8125 186.078125 -207.550781 177.890625 -200.90625 C 162.046875 -188.125 150.160156 -177.257812 142.234375 -168.3125 C 134.316406 -159.363281 130.359375 -150.546875 130.359375 -141.859375 C 130.359375 -133.679688 133.425781 -124.476562 139.5625 -114.25 C 145.695312 -104.03125 154.640625 -90.484375 166.390625 -73.609375 C 173.546875 -65.429688 179.039062 -56.867188 182.875 -47.921875 C 186.707031 -38.972656 188.625 -29.898438 188.625 -20.703125 C 188.625 -0.765625 182.617188 15.847656 170.609375 29.140625 C 158.597656 42.429688 144.664062 52.398438 128.8125 59.046875 C 112.96875 65.691406 98.910156 69.015625 86.640625 69.015625 Z M 86.640625 69.015625 "/></g></g></g><g fill="#000000" fill-opacity="1"><g transform="translate(234.465856, 768.024618)"><g><path d="M 92.015625 -154.125 C 104.796875 -153.101562 116.171875 -147.863281 126.140625 -138.40625 C 136.109375 -128.945312 144.03125 -117.570312 149.90625 -104.28125 C 155.789062 -90.988281 158.734375 -77.695312 158.734375 -64.40625 C 158.734375 -51.625 153.488281 -38.84375 143 -26.0625 C 132.519531 -13.289062 119.867188 -6.90625 105.046875 -6.90625 C 93.296875 -6.90625 82.304688 -11.628906 72.078125 -21.078125 C 61.859375 -30.535156 53.679688 -42.804688 47.546875 -57.890625 C 41.410156 -72.972656 38.34375 -88.4375 38.34375 -104.28125 C 38.34375 -124.21875 43.582031 -137.507812 54.0625 -144.15625 C 64.539062 -150.800781 77.191406 -154.125 92.015625 -154.125 Z M 151.0625 -364.234375 C 149.007812 -348.378906 143.128906 -334.703125 133.421875 -323.203125 C 123.710938 -311.703125 112.46875 -305.953125 99.6875 -305.953125 C 83.320312 -305.953125 69.132812 -311.570312 57.125 -322.8125 C 45.113281 -334.0625 39.109375 -346.585938 39.109375 -360.390625 C 39.109375 -375.210938 44.472656 -388.375 55.203125 -399.875 C 65.941406 -411.382812 78.976562 -417.140625 94.3125 -417.140625 C 104.03125 -417.140625 113.101562 -414.328125 121.53125 -408.703125 C 129.96875 -403.078125 137 -396.175781 142.625 -388 C 148.25 -379.820312 151.0625 -371.898438 151.0625 -364.234375 Z M 151.0625 -364.234375 "/></g></g></g><g fill="#000000" fill-opacity="1"><g transform="translate(416.195897, 768.024618)"><g><path d="M 27.609375 183.265625 C 28.628906 153.097656 31.566406 123.0625 36.421875 93.15625 C 41.273438 63.257812 46.128906 33.484375 50.984375 3.828125 C 55.847656 -25.816406 58.28125 -55.71875 58.28125 -85.875 C 58.28125 -100.707031 56.234375 -116.046875 52.140625 -131.890625 C 48.046875 -147.734375 46 -162.554688 46 -176.359375 C 46 -206.523438 58.394531 -231.316406 83.1875 -250.734375 C 107.988281 -270.160156 142.113281 -279.875 185.5625 -279.875 C 211.632812 -279.875 236.425781 -275.398438 259.9375 -266.453125 C 283.457031 -257.515625 302.628906 -243.710938 317.453125 -225.046875 C 332.273438 -206.390625 339.6875 -181.984375 339.6875 -151.828125 C 339.6875 -130.359375 334.191406 -110.804688 323.203125 -93.171875 C 312.210938 -75.535156 297.128906 -61.472656 277.953125 -50.984375 C 258.785156 -40.503906 236.679688 -35.265625 211.640625 -35.265625 C 203.972656 -35.265625 197.070312 -35.519531 190.9375 -36.03125 C 184.800781 -36.550781 179.429688 -36.8125 174.828125 -36.8125 C 160.515625 -36.8125 151.566406 -33.359375 147.984375 -26.453125 C 144.410156 -19.554688 141.601562 -5.628906 139.5625 15.328125 C 134.445312 61.847656 129.84375 108.75 125.75 156.03125 C 121.664062 203.320312 116.046875 250.484375 108.890625 297.515625 C 101.734375 343.523438 86.394531 366.53125 62.875 366.53125 C 50.601562 366.53125 40.890625 359.242188 33.734375 344.671875 C 26.578125 330.109375 23 312.859375 23 292.921875 C 23 274.515625 23.640625 256.238281 24.921875 238.09375 C 26.203125 219.945312 27.097656 201.671875 27.609375 183.265625 Z M 27.609375 183.265625 "/></g></g></g><g fill="#000000" fill-opacity="1"><g transform="translate(778.889222, 768.024618)"><g><path d="M 27.609375 183.265625 C 28.628906 153.097656 31.566406 123.0625 36.421875 93.15625 C 41.273438 63.257812 46.128906 33.484375 50.984375 3.828125 C 55.847656 -25.816406 58.28125 -55.71875 58.28125 -85.875 C 58.28125 -100.707031 56.234375 -116.046875 52.140625 -131.890625 C 48.046875 -147.734375 46 -162.554688 46 -176.359375 C 46 -206.523438 58.394531 -231.316406 83.1875 -250.734375 C 107.988281 -270.160156 142.113281 -279.875 185.5625 -279.875 C 211.632812 -279.875 236.425781 -275.398438 259.9375 -266.453125 C 283.457031 -257.515625 302.628906 -243.710938 317.453125 -225.046875 C 332.273438 -206.390625 339.6875 -181.984375 339.6875 -151.828125 C 339.6875 -130.359375 334.191406 -110.804688 323.203125 -93.171875 C 312.210938 -75.535156 297.128906 -61.472656 277.953125 -50.984375 C 258.785156 -40.503906 236.679688 -35.265625 211.640625 -35.265625 C 203.972656 -35.265625 197.070312 -35.519531 190.9375 -36.03125 C 184.800781 -36.550781 179.429688 -36.8125 174.828125 -36.8125 C 160.515625 -36.8125 151.566406 -33.359375 147.984375 -26.453125 C 144.410156 -19.554688 141.601562 -5.628906 139.5625 15.328125 C 134.445312 61.847656 129.84375 108.75 125.75 156.03125 C 121.664062 203.320312 116.046875 250.484375 108.890625 297.515625 C 101.734375 343.523438 86.394531 366.53125 62.875 366.53125 C 50.601562 366.53125 40.890625 359.242188 33.734375 344.671875 C 26.578125 330.109375 23 312.859375 23 292.921875 C 23 274.515625 23.640625 256.238281 24.921875 238.09375 C 26.203125 219.945312 27.097656 201.671875 27.609375 183.265625 Z M 27.609375 183.265625 "/></g></g></g><g clip-path="url(#9e35c79174)"><g transform="matrix(1, 0, 0, 1, 1091, 109)"><g clip-path="url(#89a072f167)"><g fill="#000000" fill-opacity="1"><g transform="translate(408.978188, 373.023894)"><g><path d="M -27.609375 -183.265625 C -28.628906 -153.097656 -31.566406 -123.0625 -36.421875 -93.15625 C -41.273438 -63.257812 -46.128906 -33.484375 -50.984375 -3.828125 C -55.847656 25.816406 -58.28125 55.71875 -58.28125 85.875 C -58.28125 100.695312 -56.234375 116.03125 -52.140625 131.875 C -48.046875 147.726562 -46 162.554688 -46 176.359375 C -46 206.515625 -58.394531 231.304688 -83.1875 250.734375 C -107.988281 270.160156 -142.113281 279.875 -185.5625 279.875 C -211.632812 279.875 -236.425781 275.398438 -259.9375 266.453125 C -283.445312 257.503906 -302.613281 243.703125 -317.4375 225.046875 C -332.269531 206.390625 -339.6875 181.984375 -339.6875 151.828125 C -339.6875 130.359375 -334.191406 110.800781 -323.203125 93.15625 C -312.210938 75.519531 -297.128906 61.460938 -277.953125 50.984375 C -258.785156 40.503906 -236.675781 35.265625 -211.625 35.265625 C -203.957031 35.265625 -197.054688 35.519531 -190.921875 36.03125 C -184.796875 36.550781 -179.429688 36.8125 -174.828125 36.8125 C -160.515625 36.8125 -151.566406 33.359375 -147.984375 26.453125 C -144.410156 19.554688 -141.597656 5.628906 -139.546875 -15.328125 C -134.441406 -61.847656 -129.84375 -108.75 -125.75 -156.03125 C -121.664062 -203.320312 -116.046875 -250.484375 -108.890625 -297.515625 C -101.722656 -343.515625 -86.382812 -366.515625 -62.875 -366.515625 C -50.601562 -366.515625 -40.890625 -359.226562 -33.734375 -344.65625 C -26.578125 -330.09375 -23 -312.84375 -23 -292.90625 C -23 -274.507812 -23.640625 -256.234375 -24.921875 -238.078125 C -26.203125 -219.929688 -27.097656 -201.660156 -27.609375 -183.265625 Z M -27.609375 -183.265625 "/></g></g></g></g></g></g></g></g></svg>